<svg width="100" height="100" viewBox="0 0 100 100" fill="none" xmlns="http://www.w3.org/2000/svg">
  <path d="M1.5 0C1.5 0.828427 0.828427 1.5 0 1.5C-0.828427 1.5 -1.5 0.828427 -1.5 0C-1.5 -0.828427 -0.828427 -1.5 0 -1.5C0.828427 -1.5 1.5 -0.828427 1.5 0Z" transform="matrix(1 0 0 -1 50 50)" fill="white" fill-opacity="0.1"/>
  <path fill-rule="evenodd" clip-rule="evenodd" d="M100 0H0V100H100V0ZM50 50.5C50.2761 50.5 50.5 50.2761 50.5 50C50.5 49.7239 50.2761 49.5 50 49.5C49.7239 49.5 49.5 49.7239 49.5 50C49.5 50.2761 49.7239 50.5 50 50.5Z" fill="white" fill-opacity="0.05"/>
</svg> 